<svg width="19" height="21" viewBox="0 0 19 21" fill="none" xmlns="http://www.w3.org/2000/svg">
<path d="M9.62282 12.1874C7.61812 12.1874 5.98047 10.5592 5.98047 8.54505C5.98047 6.53094 7.61812 4.91211 9.62282 4.91211C11.6275 4.91211 13.2651 6.54034 13.2651 8.55446C13.2651 10.5686 11.6275 12.1874 9.62282 12.1874ZM9.62282 6.32387C8.39929 6.32387 7.39223 7.32153 7.39223 8.55446C7.39223 9.7874 8.38987 10.785 9.62282 10.785C10.8558 10.785 11.8534 9.7874 11.8534 8.55446C11.8534 7.32153 10.8463 6.32387 9.62282 6.32387Z" fill="#145C2F"/>
<path d="M9.62196 20.274C8.22901 20.274 6.82666 19.7469 5.73489 18.7022C2.95843 16.0293 -0.109816 11.7658 1.04783 6.69282C2.09254 2.09047 6.11136 0.0292969 9.62196 0.0292969C9.62196 0.0292969 9.62196 0.0292969 9.63136 0.0292969C13.142 0.0292969 17.1608 2.09047 18.2055 6.70224C19.3537 11.7752 16.2855 16.0293 13.509 18.7022C12.4173 19.7469 11.0149 20.274 9.62196 20.274ZM9.62196 1.44106C6.88313 1.44106 3.36312 2.89989 2.43136 7.00341C1.41489 11.4364 4.20078 15.2575 6.72312 17.6763C8.35137 19.2482 10.9019 19.2482 12.5302 17.6763C15.0432 15.2575 17.829 11.4364 16.8313 7.00341C15.8902 2.89989 12.3608 1.44106 9.62196 1.44106Z" fill="#145C2F"/>
</svg>
